<svg xmlns="http://www.w3.org/2000/svg" width="800" height="450" viewBox="0 0 800 450">
  <defs>
    <linearGradient id="bg" x1="0%" y1="0%" x2="100%" y2="100%">
      <stop offset="0%" style="stop-color:#1a1a2e"/>
      <stop offset="100%" style="stop-color:#16213e"/>
    </linearGradient>
    <linearGradient id="accent" x1="0%" y1="0%" x2="100%" y2="0%">
      <stop offset="0%" style="stop-color:#0f3460"/>
      <stop offset="100%" style="stop-color:#533483"/>
    </linearGradient>
  </defs>
  <rect width="800" height="450" fill="url(#bg)"/>
  <!-- Grid lines -->
  <g stroke="#ffffff08" stroke-width="1">
    <line x1="0" y1="90" x2="800" y2="90"/>
    <line x1="0" y1="180" x2="800" y2="180"/>
    <line x1="0" y1="270" x2="800" y2="270"/>
    <line x1="0" y1="360" x2="800" y2="360"/>
    <line x1="160" y1="0" x2="160" y2="450"/>
    <line x1="320" y1="0" x2="320" y2="450"/>
    <line x1="480" y1="0" x2="480" y2="450"/>
    <line x1="640" y1="0" x2="640" y2="450"/>
  </g>
  <!-- Map polygon shapes (abstract Bogotá neighborhoods) -->
  <polygon points="200,120 280,100 360,130 340,200 260,220 190,180" fill="#0f3460" opacity="0.7" stroke="#4fc3f7" stroke-width="1.5"/>
  <polygon points="340,200 360,130 440,150 460,230 380,250" fill="#1a237e" opacity="0.8" stroke="#4fc3f7" stroke-width="1.5"/>
  <polygon points="190,180 260,220 240,300 160,310 150,240" fill="#4a148c" opacity="0.6" stroke="#ce93d8" stroke-width="1.5"/>
  <polygon points="260,220 340,200 380,250 360,320 280,330 240,300" fill="#311b92" opacity="0.75" stroke="#b39ddb" stroke-width="1.5"/>
  <polygon points="380,250 460,230 500,290 470,360 390,370 360,320" fill="#1565c0" opacity="0.7" stroke="#4fc3f7" stroke-width="1.5"/>
  <polygon points="460,230 540,200 580,260 540,320 500,290" fill="#6a1b9a" opacity="0.65" stroke="#ce93d8" stroke-width="1.5"/>
  <!-- Heatmap dots -->
  <circle cx="290" cy="170" r="18" fill="#ef5350" opacity="0.5"/>
  <circle cx="290" cy="170" r="10" fill="#ef5350" opacity="0.7"/>
  <circle cx="420" cy="210" r="14" fill="#ff7043" opacity="0.5"/>
  <circle cx="420" cy="210" r="7" fill="#ff7043" opacity="0.7"/>
  <circle cx="340" cy="280" r="22" fill="#e53935" opacity="0.45"/>
  <circle cx="340" cy="280" r="12" fill="#e53935" opacity="0.65"/>
  <circle cx="480" cy="280" r="12" fill="#ffa726" opacity="0.5"/>
  <circle cx="480" cy="280" r="6" fill="#ffa726" opacity="0.7"/>
  <circle cx="220" cy="250" r="10" fill="#66bb6a" opacity="0.5"/>
  <circle cx="220" cy="250" r="5" fill="#66bb6a" opacity="0.7"/>
  <!-- Right panel -->
  <rect x="580" y="80" width="180" height="290" rx="8" fill="#ffffff06" stroke="#ffffff15" stroke-width="1"/>
  <text x="670" y="115" text-anchor="middle" fill="#4fc3f7" font-family="monospace" font-size="11" font-weight="bold">ÍNDICES</text>
  <text x="600" y="145" fill="#ffffff80" font-family="monospace" font-size="10">Disimilitud</text>
  <rect x="600" y="152" width="140" height="6" rx="3" fill="#ffffff15"/>
  <rect x="600" y="152" width="98" height="6" rx="3" fill="#4fc3f7"/>
  <text x="745" y="160" fill="#4fc3f7" font-family="monospace" font-size="10">0.70</text>
  <text x="600" y="185" fill="#ffffff80" font-family="monospace" font-size="10">Exposición</text>
  <rect x="600" y="192" width="140" height="6" rx="3" fill="#ffffff15"/>
  <rect x="600" y="192" width="62" height="6" rx="3" fill="#ce93d8"/>
  <text x="745" y="200" fill="#ce93d8" font-family="monospace" font-size="10">0.44</text>
  <text x="600" y="225" fill="#ffffff80" font-family="monospace" font-size="10">Moran's I</text>
  <rect x="600" y="232" width="140" height="6" rx="3" fill="#ffffff15"/>
  <rect x="600" y="232" width="112" height="6" rx="3" fill="#66bb6a"/>
  <text x="745" y="240" fill="#66bb6a" font-family="monospace" font-size="10">0.80</text>
  <!-- Legend -->
  <circle cx="608" cy="275" r="5" fill="#ef5350" opacity="0.8"/>
  <text x="620" y="279" fill="#ffffff60" font-family="monospace" font-size="9">Alta concentración VIS</text>
  <circle cx="608" cy="295" r="5" fill="#66bb6a" opacity="0.8"/>
  <text x="620" y="299" fill="#ffffff60" font-family="monospace" font-size="9">Baja concentración VIS</text>
  <circle cx="608" cy="315" r="5" fill="#ffa726" opacity="0.8"/>
  <text x="620" y="319" fill="#ffffff60" font-family="monospace" font-size="9">Zona mixta</text>
  <!-- Title -->
  <text x="40" y="390" fill="#ffffff" font-family="sans-serif" font-size="18" font-weight="bold">Segregación VIS · Bogotá</text>
  <text x="40" y="415" fill="#4fc3f7" font-family="monospace" font-size="12">Análisis geoespacial · Índices de segregación · Python</text>
</svg>
